<svg width="90px" height="37px" viewBox="0 0 90 37" version="1.1" xmlns="http://www.w3.org/2000/svg" xmlns:xlink="http://www.w3.org/1999/xlink">
    <title>Frame 2</title>
    <defs>
        <path d="M65.28,19.1 L65.28,31.724 C65.28,33.116 65.568,34.172 66.768,34.172 C67.2,34.172 67.68,33.98 67.824,33.836 L67.824,34.268 C66.576,35.66 65.232,36.284 63.936,36.284 C61.92,36.284 61.152,34.796 60.96,33.116 C59.856,34.892 57.984,36.38 55.968,36.38 C53.088,36.38 51.024,33.74 51.024,30.428 C51.024,27.212 52.704,25.916 56.064,24.572 L60.912,22.7 L60.912,19.052 C60.912,15.596 60.336,13.436 58.416,13.436 C56.88,13.436 56.544,14.876 56.064,16.796 C55.728,18.188 55.248,19.148 54,19.148 C52.656,19.148 51.84,18.428 51.504,17.804 C52.128,15.02 54.672,12.764 58.608,12.764 C63.168,12.764 65.28,15.212 65.28,19.1 Z M89,35.996 L80,35.996 L80,26.996 L89,26.996 Z M20.064,10.508 L19.488,10.508 C18.48,5.084 16.752,3.212 12.624,3.212 L7.68,3.212 L7.68,18.476 L11.856,18.476 C14.496,18.476 15.792,17.228 16.416,14.06 L16.896,14.06 L16.896,24.236 L16.416,24.236 C15.792,21.116 14.496,19.34 11.856,19.34 L7.68,19.34 L7.68,32.732 C7.68,34.652 8.544,35.132 10.416,35.42 L11.136,35.516 L11.136,35.996 L-2.13162821e-14,35.996 L-2.13162821e-14,35.516 L0.624,35.42 C1.968,35.132 2.928,34.604 2.928,32.732 L2.928,5.66 C2.928,3.836 1.92,3.164 0.624,2.972 L-2.13162821e-14,2.876 L-2.13162821e-14,2.396 L20.064,2.396 Z M26.976,32.876 C26.976,34.604 27.408,35.228 28.704,35.468 L29.232,35.564 L29.232,35.996 L20.304,35.996 L20.304,35.564 L20.832,35.468 C22.128,35.18 22.56,34.7 22.56,32.876 L22.56,18.044 C22.56,16.268 22.128,15.404 20.304,15.212 L20.304,14.876 L26.736,12.86 L26.976,12.86 Z M48.096,19.196 L48.096,32.876 C48.096,34.604 48.576,35.228 49.872,35.468 L50.4,35.564 L50.4,35.996 L41.568,35.996 L41.568,35.564 L42.144,35.468 C43.104,35.276 43.68,34.892 43.68,32.876 L43.68,20.204 C43.68,16.94 42.72,15.02 40.56,15.02 C39.12,15.02 37.776,15.932 36.912,17.18 L36.912,32.876 C36.912,34.652 37.392,35.228 38.544,35.468 L39.072,35.564 L39.072,35.996 L30.24,35.996 L30.24,35.564 L30.768,35.468 C32.016,35.228 32.496,34.7 32.496,32.876 L32.496,18.044 C32.496,16.364 32.016,15.404 30.192,15.212 L30.192,14.876 L36.624,12.86 L36.864,12.86 L36.864,16.556 C37.92,14.78 40.032,12.716 42.912,12.716 C46.704,12.716 48.096,16.028 48.096,19.196 Z M74.832,32.876 C74.832,34.604 75.264,35.228 76.512,35.468 L77.04,35.564 L77.04,35.996 L68.112,35.996 L68.112,35.564 L68.64,35.468 C69.936,35.18 70.368,34.7 70.368,32.876 L70.368,5.996 C70.368,4.268 69.984,3.356 68.112,3.164 L68.112,2.828 L74.544,0.86 L74.832,0.86 Z M57.744,24.716 C55.92,25.484 55.152,26.876 55.152,29.084 C55.152,31.772 56.4,34.172 58.416,34.172 C59.52,34.172 60.336,33.404 60.912,32.396 L60.912,23.372 Z M27.264,7.868 C27.264,9.212 26.064,10.364 24.72,10.364 C23.328,10.364 22.176,9.212 22.176,7.868 C22.176,6.524 23.328,5.372 24.72,5.372 C26.064,5.372 27.264,6.524 27.264,7.868 Z" id="path-1"/>
        <radialGradient cx="50%" cy="101.281869%" fx="50%" fy="101.281869%" r="99.5798567%" id="radialGradient-2">
            <stop stop-color="#AB47FF" offset="0%"/>
            <stop stop-color="#DF48FF" offset="33.5840095%"/>
            <stop stop-color="#FF6C48" offset="100%"/>
        </radialGradient>
    </defs>
    <g id="Frame-2" stroke="none" fill="none" xlink:href="#path-1" fill-rule="evenodd">
        <rect id="Rectangle" fill="url(#radialGradient-2)" x="80" y="26.996" width="9" height="9"/>
        <g id="Final-Copy-20" stroke-width="1" transform="translate(-0, 0.86)" fill="#FFFFFF">
            <path d="M0,35.136 L11.136,35.136 L11.136,34.656 L10.416,34.56 C8.544,34.272 7.68,33.792 7.68,31.872 L7.68,18.48 L11.856,18.48 C14.496,18.48 15.792,20.256 16.416,23.376 L16.896,23.376 L16.896,13.2 L16.416,13.2 C15.792,16.368 14.496,17.616 11.856,17.616 L7.68,17.616 L7.68,2.352 L12.624,2.352 C16.752,2.352 18.48,4.224 19.488,9.648 L20.064,9.648 L20.064,1.536 L0,1.536 L0,2.016 L0.624,2.112 C1.92,2.304 2.928,2.976 2.928,4.8 L2.928,31.872 C2.928,33.744 1.968,34.272 0.624,34.56 L0,34.656 L0,35.136 Z" id="Path" fill-rule="nonzero"/>
            <path d="M20.304,35.136 L29.232,35.136 L29.232,34.704 L28.704,34.608 C27.408,34.368 26.976,33.744 26.976,32.016 L26.976,12 L26.736,12 L20.304,14.016 L20.304,14.352 C22.128,14.544 22.56,15.408 22.56,17.184 L22.56,32.016 C22.56,33.84 22.128,34.32 20.832,34.608 L20.304,34.704 L20.304,35.136 Z M24.72,9.504 C26.064,9.504 27.264,8.352 27.264,7.008 C27.264,5.664 26.064,4.512 24.72,4.512 C23.328,4.512 22.176,5.664 22.176,7.008 C22.176,8.352 23.328,9.504 24.72,9.504 Z" id="Shape" fill-rule="nonzero"/>
            <path d="M41.568,35.136 L50.4,35.136 L50.4,34.704 L49.872,34.608 C48.576,34.368 48.096,33.744 48.096,32.016 L48.096,18.336 C48.096,15.168 46.704,11.856 42.912,11.856 C40.032,11.856 37.92,13.92 36.864,15.696 L36.864,12 L36.624,12 L30.192,14.016 L30.192,14.352 C32.016,14.544 32.496,15.504 32.496,17.184 L32.496,32.016 C32.496,33.84 32.016,34.368 30.768,34.608 L30.24,34.704 L30.24,35.136 L39.072,35.136 L39.072,34.704 L38.544,34.608 C37.392,34.368 36.912,33.792 36.912,32.016 L36.912,16.32 C37.776,15.072 39.12,14.16 40.56,14.16 C42.72,14.16 43.68,16.08 43.68,19.344 L43.68,32.016 C43.68,34.032 43.104,34.416 42.144,34.608 L41.568,34.704 L41.568,35.136 Z" id="Path" fill-rule="nonzero"/>
            <path d="M63.936,35.424 C65.232,35.424 66.576,34.8 67.824,33.408 L67.824,32.976 C67.68,33.12 67.2,33.312 66.768,33.312 C65.568,33.312 65.28,32.256 65.28,30.864 L65.28,18.24 C65.28,14.352 63.168,11.904 58.608,11.904 C54.672,11.904 52.128,14.16 51.504,16.944 C51.84,17.568 52.656,18.288 54,18.288 C55.248,18.288 55.728,17.328 56.064,15.936 C56.544,14.016 56.88,12.576 58.416,12.576 C60.336,12.576 60.912,14.736 60.912,18.192 L60.912,21.84 L56.064,23.712 C52.704,25.056 51.024,26.352 51.024,29.568 C51.024,32.88 53.088,35.52 55.968,35.52 C57.984,35.52 59.856,34.032 60.96,32.256 C61.152,33.936 61.92,35.424 63.936,35.424 Z M55.152,28.224 C55.152,26.016 55.92,24.624 57.744,23.856 L60.912,22.512 L60.912,31.344 L60.912,31.536 C60.336,32.544 59.52,33.312 58.416,33.312 C56.4,33.312 55.152,30.912 55.152,28.224 Z" id="Shape" fill-rule="nonzero"/>
            <path d="M68.112,35.136 L77.04,35.136 L77.04,34.704 L76.512,34.608 C75.264,34.368 74.832,33.744 74.832,32.016 L74.832,0 L74.544,0 L68.112,1.968 L68.112,2.304 C69.984,2.496 70.368,3.408 70.368,5.136 L70.368,32.016 C70.368,33.84 69.936,34.32 68.64,34.608 L68.112,34.704 L68.112,35.136 Z" id="Path" fill-rule="nonzero"/>
        </g>
    </g>
</svg>